<?xml version="1.0" encoding="UTF-8" standalone="no"?>
<!-- Created with Inkscape (http://www.inkscape.org/) -->

<svg
   width="166mm"
   height="166mm"
   viewBox="0 0 166 166"
   version="1.1"
   id="svg1"
   sodipodi:docname="drawing.svg"
   inkscape:version="1.4.3 (0d15f75, 2025-12-25)"
   xmlns:inkscape="http://www.inkscape.org/namespaces/inkscape"
   xmlns:sodipodi="http://sodipodi.sourceforge.net/DTD/sodipodi-0.dtd"
   xmlns="http://www.w3.org/2000/svg"
   xmlns:svg="http://www.w3.org/2000/svg">
  <sodipodi:namedview
     id="namedview1"
     pagecolor="#ffffff"
     bordercolor="#000000"
     borderopacity="0.25"
     inkscape:showpageshadow="2"
     inkscape:pageopacity="0.0"
     inkscape:pagecheckerboard="0"
     inkscape:deskcolor="#d1d1d1"
     inkscape:document-units="mm"
     inkscape:zoom="8"
     inkscape:cx="350.9375"
     inkscape:cy="462.9375"
     inkscape:window-width="1920"
     inkscape:window-height="1027"
     inkscape:window-x="-8"
     inkscape:window-y="-8"
     inkscape:window-maximized="1"
     inkscape:current-layer="layer2" />
  <defs
     id="defs1" />
  <g
     inkscape:groupmode="layer"
     id="layer2"
     inkscape:label="Layer 2">
    <path
       style="opacity:1;fill:#3974b8;fill-opacity:1;fill-rule:nonzero;stroke:#3974b8;stroke-width:8.53606;stroke-dasharray:none;stroke-opacity:1"
       d="m 347.14586,503.52249 c -1.3315,-0.57988 -11.20835,-11.0493 -25.65666,-27.19593 -13.82198,-15.44668 -23.99123,-26.24643 -24.70516,-26.23691 -0.66738,0.009 -32.07591,6.02128 -69.79675,13.36083 -60.66342,11.80363 -68.86203,13.25115 -70.99669,12.53496 -3.04026,-1.02001 -5.14315,-3.80684 -5.20819,-6.90209 -0.0307,-1.46229 8.94566,-27.39165 23.08144,-66.67354 12.72245,-35.35437 22.99807,-64.62859 22.83472,-65.05382 -0.16335,-0.42524 -21.16302,-24.071 -46.66593,-52.54615 -36.84936,-41.14394 -46.46182,-52.26807 -46.82135,-54.18454 -0.5281,-2.81501 0.9699,-6.25338 3.42535,-7.86226 0.88102,-0.57727 33.09195,-7.13076 71.57984,-14.56331 38.4879,-7.43254 70.09278,-13.62759 70.23307,-13.76677 0.14029,-0.13917 5.61411,-14.9875 12.16405,-32.99628 10.14742,-27.89993 12.22937,-33.03088 14.075,-34.68779 2.3519,-2.11142 5.12301,-2.48984 8.14609,-1.11243 1.39305,0.63472 43.6419,47.00119 47.4224,52.04425 0.62651,0.83574 11.84321,-1.15891 70.35713,-12.51153 38.28648,-7.42817 70.18444,-13.50329 70.88434,-13.50027 3.57176,0.0154 7.56628,4.14276 7.56628,7.81786 0,0.83525 -10.2191,29.56843 -22.70912,63.85151 -12.49002,34.28307 -23.13849,63.53447 -23.66327,65.00309 l -0.95414,2.67023 37.98273,42.23105 c 63.10065,70.15837 56.01285,61.85678 56.01285,65.60508 0,2.63746 -0.38337,3.63463 -2.03072,5.28197 -1.11689,1.1169 -2.78743,2.21849 -3.71231,2.448 -0.92487,0.22951 -32.35328,6.27306 -69.8409,13.43011 -37.48763,7.15705 -68.38955,13.26998 -68.67094,13.58428 -0.2814,0.31431 -5.84711,15.36768 -12.36826,33.45194 -6.52114,18.08425 -12.37109,33.48123 -12.99989,34.21549 -1.07198,1.25179 -5.01932,3.29493 -6.24708,3.23349 -0.30418,-0.0152 -1.52724,-0.45195 -2.71793,-0.97052 z m -13.78848,-48.59587 c -1.08868,-6.29268 -1.92349,-9.35229 -2.62525,-9.62158 -0.99446,-0.38161 -11.33204,1.56292 -12.03247,2.26334 -0.53408,0.53408 2.88131,4.72882 9.59108,11.77965 3.36641,3.53751 6.24274,6.06588 6.39184,5.61858 0.14909,-0.44729 -0.44725,-4.96529 -1.3252,-10.03999 z m 24.29145,-3.67932 c 4.72139,-12.93123 4.58205,-11.79177 1.43229,-11.71255 -1.48462,0.0373 -4.29029,0.43569 -6.23484,0.88525 -3.12671,0.72287 -3.56217,1.05002 -3.76591,2.82928 -0.21841,1.90742 2.45962,17.06754 3.25421,18.42179 0.67552,1.15131 2.12883,-1.69933 5.31425,-10.42377 z m -149.40227,-0.13722 c 43.26784,-8.33452 109.47194,-21.54168 111.21491,-22.18644 1.52269,-0.56328 4.67843,3.22908 -29.17879,-35.06516 -51.73863,-58.51905 -66.2069,-74.59977 -67.11947,-74.59977 -0.78424,0 -10.59336,26.39657 -36.26157,97.58074 -14.01719,38.87307 -14.75497,41.01219 -14.14507,41.01219 0.27049,0 16.24099,-3.0337 35.48999,-6.74156 z m 152.46205,-29.70126 c 10.48936,-1.81645 137.69008,-26.50441 139.34805,-27.04558 1.40931,-0.46002 0.78247,-1.35423 -7.07106,-10.08716 -4.73961,-5.27032 -23.76456,-26.43833 -42.27768,-47.04003 -37.79693,-42.06101 -48.6714,-53.66184 -49.51301,-52.82023 -0.31786,0.31786 -2.52504,5.98062 -4.90484,12.58389 -8.77739,24.35476 -44.50445,124.82707 -44.50445,125.15625 0,0.58241 2.41116,0.38052 8.92299,-0.74714 z M 320.351,388.20328 c -1.37858,-6.59095 -2.5065,-12.08251 -2.5065,-12.20348 0,-0.22774 -22.60121,-15.11525 -36.64877,-24.14067 -8.06301,-5.18041 -10.35553,-5.94491 -7.08967,-2.36423 0.97176,1.06544 6.50934,7.34654 12.30574,13.95798 5.79639,6.61145 16.27414,18.37682 23.28389,26.14526 11.02426,12.21745 12.77314,13.88575 12.95341,12.35656 0.11462,-0.97234 -0.91953,-7.16047 -2.2981,-13.75142 z m 26.17821,-2.58635 c 11.16211,-31.15291 19.44514,-55.33035 19.25288,-56.19749 -0.23822,-1.07441 -7.25722,8.64144 -20.91019,28.94433 l -9.48971,14.11184 0.48072,3.97392 c 0.57034,4.71487 2.97067,17.66056 4.00891,21.62129 0.93681,3.57377 0.86965,3.6994 6.65739,-12.45389 z M 332.34019,345.9974 c 29.32468,-41.99561 45.88321,-66.29754 45.4608,-66.71996 -0.55288,-0.55288 -132.44565,25.26059 -133.26761,26.08255 -0.26307,0.26307 0.13486,0.94878 0.88429,1.52381 9.47284,7.26848 75.76579,51.15177 77.37657,51.22022 0.59845,0.0254 4.75838,-5.25039 9.54595,-12.10662 z M 206.49342,311.96232 c 1.09897,-3.23679 1.78978,-6.42804 1.53512,-7.09166 -0.41267,-1.07541 -38.37916,-26.71887 -41.11047,-27.76696 -2.96338,-1.13716 -1.14923,1.0661 21.73723,26.39955 10.04321,11.11702 14.43401,15.51099 15.01663,15.02747 0.45284,-0.37584 1.72251,-3.33162 2.82149,-6.5684 z m 70.69244,-30.8737 c 84.23983,-16.51786 101.80693,-20.18137 102.01756,-21.27512 0.31196,-1.61987 -5.41213,-8.36231 -40.47976,-47.68147 -39.61272,-44.41526 -55.01857,-61.24776 -55.54695,-60.69083 -0.60182,0.63435 -10.89603,28.58445 -27.69171,75.18652 -18.58039,51.55403 -21.85867,61.01666 -21.48037,62.00248 0.22774,0.59346 0.98849,0.822 1.97673,0.5938 0.88359,-0.20403 19.42561,-3.86494 41.2045,-8.13538 z m -56.78676,-7.8396 c 8.6367,-23.45859 20.37076,-56.89075 20.37076,-58.03947 0,-0.99891 -1.08655,-0.93175 -9.72272,0.60088 -7.50116,1.33121 -85.43806,16.70886 -93.33809,18.41644 -0.87505,0.18914 -1.591,0.62154 -1.591,0.96089 0,1.49349 77.24135,51.84202 78.75732,51.3367 0.39883,-0.13294 2.88451,-6.10689 5.52373,-13.27544 z m 203.87714,-7.43374 c 6.91205,-18.88958 13.77641,-38.95842 13.77641,-40.27713 0,-0.80781 -1.61602,0.87644 -4.12605,4.30025 -7.89724,10.77225 -24.15817,34.52477 -24.15039,35.27675 0.0125,1.20472 9.27444,11.09794 10.12454,10.81457 0.42246,-0.14082 2.39143,-4.69231 4.37549,-10.11444 z m -16.4131,-28.75773 c 25.141,-36.13953 43.1524,-62.75646 42.74342,-63.16545 -0.49607,-0.49607 -100.62186,18.29202 -103.34624,19.3924 -1.17684,0.47532 -0.52026,1.50163 5.29764,8.28083 16.91863,19.71417 43.98268,49.10402 45.21809,49.10402 0.33981,0 4.879,-6.12531 10.08709,-13.6118 z"
       id="path48"
       transform="scale(0.26458333)" />
  </g>
  <g
     inkscape:label="Layer 1"
     inkscape:groupmode="layer"
     id="layer1">
    <path
       d="m 87.592069,117.79643 -5.16e-4,5.1e-4 c -0.347,-0.008 -3.129263,0.57432 -3.244763,0.68988 -0.05,0.0496 0.843891,1.12349 1.984891,2.38436 1.1409,1.26086 2.119645,2.24597 2.174545,2.19108 0.055,-0.0549 -0.121074,-1.23995 -0.390674,-2.63654 -0.2695,-1.39656 -0.488343,-2.57506 -0.488343,-2.61792 0,0 -5.16e-4,-5.2e-4 -5.16e-4,-5.2e-4 0,0 0,-5.2e-4 0,-5.2e-4 0,0 0,-5.1e-4 0,-5.1e-4 0,0 -5.17e-4,-5.2e-4 -5.17e-4,-5.2e-4 0,0 0,-5.2e-4 0,-5.2e-4 0,0 -5.17e-4,-5.1e-4 -5.17e-4,-5.1e-4 0,0 -5.17e-4,-5.2e-4 -5.17e-4,-5.2e-4 0,0 -5.16e-4,-5.2e-4 -5.16e-4,-5.2e-4 -0.0047,-0.004 -0.01606,-0.006 -0.03256,-0.007 z"
       style="fill:#ffd000;stroke-width:2.88086;stroke-linecap:round;stroke-linejoin:round"
       id="path38" />
    <path
       d="m 95.541455,116.27094 c -0.3148,-0.0139 -2.513546,0.38504 -3.065446,0.56276 -0.2432,0.0783 0.09434,2.31721 0.768945,5.12371 0.1139,0.47366 0.371539,-0.0381 1.265039,-2.50114 0.6179,-1.7031 1.099603,-3.13237 1.069703,-3.17655 0,0 0,-5.1e-4 0,-5.1e-4 0,0 -5.17e-4,0 -5.17e-4,0 0,0 0,-5.2e-4 0,-5.2e-4 0,0 -5.17e-4,-5.2e-4 -5.17e-4,-5.2e-4 0,0 -5.17e-4,-5.1e-4 -5.17e-4,-5.1e-4 0,0 -5.16e-4,0 -5.16e-4,0 -0.0048,-0.003 -0.01911,-0.006 -0.03617,-0.006 z"
       style="fill:#ffd000;stroke-width:2.88086;stroke-linecap:round;stroke-linejoin:round"
       id="path37" />
    <path
       d="m 72.18009,91.839872 c -0.045,0.0392 2.889299,3.405348 6.519499,7.482748 3.6302,4.07742 6.631427,7.38136 6.668327,7.34219 0.134,-0.14238 -1.314565,-7.215522 -1.490865,-7.279662 -0.1,-0.0363 -2.753115,-1.765096 -5.897315,-3.841626 -3.1442,-2.07656 -5.754846,-3.74288 -5.799646,-3.70365 z"
       style="fill:#ffd000;stroke-width:2.88086;stroke-linecap:round;stroke-linejoin:round"
       id="path36" />
    <path
       d="m 96.833883,87.020528 c -0.1184,-0.11842 -7.829187,11.146982 -7.952487,11.618412 -0.066,0.25154 0.181571,2.0075 0.550871,3.90157 0.3692,1.89406 0.697004,3.41898 0.727604,3.38842 0.1269,-0.12691 6.734712,-18.847712 6.674012,-18.908402 z"
       style="fill:#ffd000;stroke-width:2.88086;stroke-linecap:round;stroke-linejoin:round"
       id="path35" />
    <path
       d="m 59.073914,84.463062 c -0.1379,-0.0852 -5.881738,15.601768 -12.543938,34.252168 l -0.841809,2.35387 0.662492,-0.12764 c 16.3845,-3.11209 38.402549,-7.47393 38.357349,-7.60006 -0.074,-0.20746 -25.390894,-28.728078 -25.634094,-28.878338 z"
       style="fill:#ffd000;stroke-width:2.88086;stroke-linecap:round;stroke-linejoin:round"
       id="path34" />
    <path
       d="m 106.21264,75.196444 c -0.091,0.10635 -3.03769,8.286085 -6.549989,18.177185 -3.5123,9.891071 -6.429226,18.104231 -6.483326,18.249531 -0.061,0.16352 1.423571,-0.0296 3.901571,-0.50798 2.2013,-0.4251 11.092404,-2.14832 19.755904,-3.82819 l 15.75046,-3.05459 -3.00861,-3.34553 c -1.6552,-1.839598 -7.55357,-8.414806 -13.10617,-14.613066 -5.5525,-6.1982 -10.16924,-11.18374 -10.25984,-11.07736 z"
       style="fill:#ffd000;stroke-width:2.88086;stroke-linecap:round;stroke-linejoin:round"
       id="path33" />
    <path
       d="m 99.926717,73.914868 c -0.042,-0.0423 -30.589798,5.909552 -35.270198,6.871932 -0.2388,0.0491 3.905351,2.918055 10.152351,7.029545 5.8055,3.82091 10.607751,6.953842 10.673251,6.961332 0.1388,0.0161 14.533089,-20.774349 14.444596,-20.862809 z"
       style="fill:#ffd000;stroke-width:2.88086;stroke-linecap:round;stroke-linejoin:round"
       id="path32" />
    <path
       d="m 43.836601,73.257544 c -0.044,0.0388 2.141468,2.545339 4.857068,5.569169 2.7155,3.02378 5.005978,5.495272 5.088578,5.495272 0.137,0 1.330668,-3.239219 1.330668,-3.611149 0,-0.18469 -11.156514,-7.558752 -11.276314,-7.453292 z"
       style="fill:#ffd000;stroke-width:2.88086;stroke-linecap:round;stroke-linejoin:round"
       id="path31" />
    <path
       d="m 115.9123,59.533317 c -0.001,8e-5 -0.003,0.001 -0.005,0.0016 -0.1343,0.0583 -1.79321,2.354201 -3.77651,5.223971 l -3.72535,5.384684 1.31775,1.4981 c 0.70907,0.807622 1.32941,1.433744 1.39784,1.41335 2.6e-4,-1.01e-4 0.001,-3.94e-4 0.002,-5.16e-4 0,0 5.2e-4,-5.17e-4 5.2e-4,-5.17e-4 0,0 5.2e-4,-5.17e-4 5.2e-4,-5.17e-4 0.1811,-0.18103 4.85387,-13.359741 4.79247,-13.515971 0,-3.75e-4 2e-5,-0.0012 0,-0.0015 0,0 0,-5.17e-4 0,-5.17e-4 0,0 -5.2e-4,-5.17e-4 -5.2e-4,-5.17e-4 0,0 0,-5.16e-4 0,-5.16e-4 0,0 -5.1e-4,0 -5.1e-4,0 0,0 0,-5.17e-4 0,-5.17e-4 0,0 -5.2e-4,0 -5.2e-4,0 0,0 -5.2e-4,0 -5.2e-4,0 0,0 -5.2e-4,-5.17e-4 -5.2e-4,-5.17e-4 0,0 -5.1e-4,0 -5.1e-4,0 -3e-4,-10e-6 -6.8e-4,-2.3e-5 -0.001,0 z"
       style="fill:#ffd000;stroke-width:2.88086;stroke-linecap:round;stroke-linejoin:round"
       id="path30" />
    <path
       d="m 63.719625,56.765527 c -0.1525,-0.15248 -27.785623,5.276186 -27.724923,5.446696 0.034,0.0951 4.720802,3.228949 10.415902,6.961849 5.6951,3.73293 10.404277,6.736299 10.464477,6.676079 0.1805,-0.18056 6.929744,-18.999354 6.844544,-19.084624 z"
       style="fill:#ffd000;stroke-width:2.88086;stroke-linecap:round;stroke-linejoin:round"
       id="path29" />
    <path
       d="m 119.20151,46.027165 c -0.044,-0.044 -6.20779,1.103809 -13.69529,2.552299 -7.487394,1.44849 -13.717631,2.633431 -13.844631,2.633431 -0.127,0 2.846015,3.430921 6.606315,7.624341 3.760396,4.1934 6.913636,7.543916 7.007836,7.444506 0.4334,-0.45759 13.99627,-20.184147 13.92577,-20.254577 z"
       style="fill:#ffd000;stroke-width:2.88086;stroke-linecap:round;stroke-linejoin:round"
       id="path28" />
    <path
       d="m 74.995422,40.034766 c -0.1251,-0.0153 -13.112092,35.920743 -13.100492,36.249983 0,0.0983 0.08588,0.179664 0.184485,0.179834 0.4178,0 37.853281,-7.410437 38.241075,-7.570597 0.3515,-0.14519 -1.834939,-2.705455 -12.386839,-14.510225 -7.0472,-7.88386 -12.870329,-14.340735 -12.938229,-14.348995 z"
       style="fill:#ffd000;stroke-width:2.88086;stroke-linecap:round;stroke-linejoin:round"
       id="path27" />
    <path
       d="m 73.614628,29.138273 c -0.2574,0.0139 -0.514112,0.04503 -0.767912,0.09353 -2.034,0.38844 -3.814255,1.901464 -4.523755,3.846794 v 0.0031 l -5.465816,15.009419 -34.602022,6.679696 c -2.0782,0.40125 -3.885879,1.982527 -4.561479,3.988387 -0.6755,2.00585 -0.192436,4.358338 1.219564,5.935038 l 22.820313,25.479582 -11.42566,31.761886 v 0.003 c -0.7146,1.98997 -0.280109,4.34723 1.097091,5.95157 1.3773,1.60431 3.646315,2.39248 5.721615,1.98748 l 34.202563,-6.64972 10.790039,12.07213 c 1.3791,1.54363 3.592897,2.28906 5.625497,1.89756 2.0325,-0.39148 3.81117,-1.90708 4.51807,-3.85248 v -5.2e-4 -5.1e-4 -5.2e-4 -5.2e-4 l 5.564004,-15.34635 34.34674,-6.5567 c 2.0836,-0.39815 3.89881,-1.98084 4.57491,-3.99149 0.6758,-2.00946 0.1878,-4.36757 -1.2299,-5.94382 v -0.003 L 118.69715,76.117318 130.27784,44.30944 c 0.7216,-1.98832 0.29554,-4.350853 -1.07746,-5.959843 -1.373,-1.60907 -3.63883,-2.404369 -5.71593,-2.004529 l -0.01,0.0031 -34.401514,6.676595 -10.608655,-11.88713 c -1.205,-1.34946 -3.046499,-2.09196 -4.848799,-1.99626 z m 0.232027,3.782198 c 0.09609,-0.0057 0.191754,-0.005 0.286804,0.0016 0.5703,0.0404 1.111634,0.30047 1.502234,0.73794 l 12.041643,13.496851 36.519214,-7.08949 c 1.6958,-0.32641 3.10058,1.319613 2.51148,2.942973 l -12.35997,33.948315 24.34735,27.08103 c 1.16,1.28754 0.46713,3.34868 -1.23507,3.6742 l -36.46754,6.96081 -6.296771,17.37465 c -0.5743,1.58175 -2.629159,1.97746 -3.750159,0.72244 l -12.226127,-13.67875 -36.323364,7.06158 c -1.6946,0.33114 -3.103543,-1.31032 -2.519743,-2.93522 L 52.065039,89.328398 27.736808,62.163647 c -1.1529,-1.28757 -0.461316,-3.340929 1.235584,-3.668509 L 65.684363,51.409265 71.885535,34.37878 c 0.2683,-0.73537 0.903866,-1.275265 1.672766,-1.422135 0.096,-0.01835 0.192267,-0.03044 0.288354,-0.03617 z"
       style="fill:#ffd000;stroke-width:2.88086;stroke-linecap:round;stroke-linejoin:round"
       id="path26" />
    <path
       style="fill:none;stroke-width:1.36063;opacity:0"
       d="M 0.68031496,314.30551 V 0.68031496 H 314.30551 627.93071 V 314.30551 627.93071 H 314.30551 0.68031496 Z M 361.22468,516.56119 c 2.58346,-1.38553 5.81719,-4.01925 7.18608,-5.85272 1.36889,-1.83349 7.51142,-17.0341 13.65009,-33.77914 l 11.1612,-30.44553 66.57305,-12.66398 c 72.46668,-13.78512 74.19802,-14.31273 78.8017,-24.01427 3.11026,-6.55439 2.89905,-16.86883 -0.4582,-22.37513 -1.4859,-2.43705 -21.56341,-25.39768 -44.6167,-51.02362 -23.05329,-25.62595 -42.32892,-47.27066 -42.83475,-48.09935 -0.50583,-0.8287 8.88668,-28.38146 20.87224,-61.22834 11.98556,-32.8469 22.12113,-62.47691 22.5235,-65.84446 1.48824,-12.45544 -9.35802,-24.41844 -22.18479,-24.46896 -3.12563,-0.0123 -34.25324,5.52262 -69.17243,12.29985 -34.9192,6.77723 -64.26103,12.13471 -65.20406,11.90551 -0.94304,-0.2292 -11.04586,-10.93387 -22.4507,-23.78818 -21.61211,-24.35881 -25.88552,-27.65216 -35.88101,-27.65216 -6.80081,0 -16.15547,5.35946 -19.30398,11.05961 -1.49978,2.71523 -7.25767,17.4605 -12.79532,32.76726 l -10.06845,27.83047 -66.12683,12.65255 c -73.418818,14.0478 -75.285507,14.62795 -80.282743,24.95085 -3.441761,7.10973 -3.580189,13.53999 -0.435164,20.21434 1.289982,2.73759 21.632347,26.49927 45.205267,52.80373 23.57291,26.30446 43.01699,48.55595 43.20907,49.44776 0.19207,0.8918 -9.4514,28.81456 -21.42992,62.05056 -13.13038,36.43194 -21.76729,62.36746 -21.74927,65.31024 0.0726,11.85305 9.00926,21.63895 20.83087,22.8103 3.64475,0.36114 28.88261,-3.98969 70.62306,-12.17494 l 64.95154,-12.73691 21.21668,23.64653 c 11.66917,13.0056 23.15783,24.83017 25.53036,26.27682 5.62657,3.43081 16.38134,3.48838 22.65961,0.12131 z"
       id="path1"
       transform="scale(0.26458333)" />
    <path
       style="opacity:0;fill:none;stroke-width:1.36063"
       d="M 0.68031496,314.30551 V 0.68031496 H 314.30551 627.93071 V 314.30551 627.93071 H 314.30551 0.68031496 Z M 361.22468,516.56119 c 2.58346,-1.38553 5.81719,-4.01925 7.18608,-5.85272 1.36889,-1.83349 7.51142,-17.0341 13.65009,-33.77914 l 11.1612,-30.44553 66.57305,-12.66398 c 72.46668,-13.78512 74.19802,-14.31273 78.8017,-24.01427 3.11026,-6.55439 2.89905,-16.86883 -0.4582,-22.37513 -1.4859,-2.43705 -21.56341,-25.39768 -44.6167,-51.02362 -23.05329,-25.62595 -42.32892,-47.27066 -42.83475,-48.09935 -0.50583,-0.8287 8.88668,-28.38146 20.87224,-61.22834 11.98556,-32.8469 22.12113,-62.47691 22.5235,-65.84446 1.48824,-12.45544 -9.35802,-24.41844 -22.18479,-24.46896 -3.12563,-0.0123 -34.25324,5.52262 -69.17243,12.29985 -34.9192,6.77723 -64.26103,12.13471 -65.20406,11.90551 -0.94304,-0.2292 -11.04586,-10.93387 -22.4507,-23.78818 -21.61211,-24.35881 -25.88552,-27.65216 -35.88101,-27.65216 -6.80081,0 -16.15547,5.35946 -19.30398,11.05961 -1.49978,2.71523 -7.25767,17.4605 -12.79532,32.76726 l -10.06845,27.83047 -66.12683,12.65255 c -73.418818,14.0478 -75.285507,14.62795 -80.282743,24.95085 -3.441761,7.10973 -3.580189,13.53999 -0.435164,20.21434 1.289982,2.73759 21.632347,26.49927 45.205267,52.80373 23.57291,26.30446 43.01699,48.55595 43.20907,49.44776 0.19207,0.8918 -9.4514,28.81456 -21.42992,62.05056 -13.13038,36.43194 -21.76729,62.36746 -21.74927,65.31024 0.0726,11.85305 9.00926,21.63895 20.83087,22.8103 3.64475,0.36114 28.88261,-3.98969 70.62306,-12.17494 l 64.95154,-12.73691 21.21668,23.64653 c 11.66917,13.0056 23.15783,24.83017 25.53036,26.27682 5.62657,3.43081 16.38134,3.48838 22.65961,0.12131 z"
       id="path2"
       transform="scale(0.26458333)" />
    <path
       style="opacity:0;fill:#3974b8;fill-opacity:0;stroke-width:1.36063"
       d="m 343.05656,499.69134 c -2.37174,-2.43213 -13.42656,-14.6778 -24.56627,-27.2126 -11.13971,-12.5348 -20.74356,-22.79055 -21.3419,-22.79055 -0.59834,0 -30.96449,5.81486 -67.48034,12.92189 -36.51585,7.10703 -68.36827,12.92372 -70.78314,12.92598 -3.12316,0.003 -5.00193,-0.92879 -6.50805,-3.22741 -2.01684,-3.07809 -1.01755,-6.28591 21.04852,-67.56788 12.74123,-35.385 23.3234,-65.08416 23.51592,-65.99815 0.19252,-0.91398 -20.62067,-25.1024 -46.25154,-53.75206 -49.55178,-55.38795 -50.80235,-57.15804 -43.54015,-61.62785 1.68378,-1.03635 33.98173,-7.81778 71.77322,-15.06985 37.7915,-7.25207 69.13067,-13.61259 69.64262,-14.1345 0.51194,-0.5219 5.88488,-14.64135 11.93986,-31.37656 6.05499,-16.73521 11.61993,-31.56906 12.36653,-32.9641 2.05832,-3.84601 6.26302,-5.6698 9.31091,-4.03861 2.09491,1.12116 42.14364,44.839 47.13194,51.45 1.16143,1.53925 13.54616,-0.50273 71.95905,-11.86454 65.72944,-12.78494 70.77616,-13.57963 73.77192,-11.61673 1.89872,1.24408 3.21576,3.44146 3.21576,5.36525 0,1.79201 -10.40882,31.79439 -23.13071,66.67195 C 442.40882,260.66258 432,289.8223 432,290.58437 c 0,0.76209 16.39204,19.57519 36.42676,41.80692 52.36935,58.11218 57.4567,63.96453 57.4567,66.09665 0,1.05385 -1.07149,3.2188 -2.3811,4.81099 -2.05576,2.49935 -11.94188,4.71174 -72.35461,16.19197 l -69.97351,13.29705 -12.03133,33.20419 c -6.61722,18.26229 -13.03255,34.31052 -14.25626,35.66271 -3.28026,3.62465 -6.9794,3.01068 -11.83009,-1.96351 z m -9.47472,-45.24095 -1.78955,-9.52441 -4.50437,0.45171 c -10.93005,1.09609 -11.00345,1.7039 -1.41216,11.69223 4.82627,5.02606 8.93718,8.63578 9.13534,8.02159 0.19818,-0.61419 -0.44499,-5.40269 -1.42926,-10.64112 z m 24.10619,-2.11878 c 4.73917,-12.78558 4.66972,-14.09071 -0.69275,-13.01822 -2.33859,0.46771 -5.09386,0.85039 -6.12284,0.85039 -1.16471,0 -1.87087,1.5154 -1.87087,4.01492 0,5.70418 2.74004,17.75516 4.03699,17.75516 0.59963,0 2.6919,-4.32101 4.64947,-9.60225 z m -119.08888,-6.82944 c 62.48377,-12.15968 80.62684,-15.92816 81.66022,-16.96153 0.65478,-0.65479 -4.47009,-6.57033 -54.67803,-63.11396 -22.30821,-25.12326 -41.2272,-45.67865 -42.04221,-45.67865 -0.815,0 -2.98929,3.97984 -4.83174,8.8441 -4.73625,12.5041 -46.5877,128.1869 -46.5877,128.77438 0,1.00051 4.48665,0.19981 66.47946,-11.86434 z m 194.08116,-37.52898 c 37.41733,-7.21554 68.26075,-13.30743 68.54096,-13.53753 0.28021,-0.23011 -1.17805,-2.43415 -3.24056,-4.89789 -4.12469,-4.92705 -81.3625,-90.61301 -90.48595,-100.38316 l -5.69819,-6.10209 -1.71858,3.38083 c -1.92608,3.78903 -48.35516,133.78456 -48.35516,135.38834 0,1.58743 8.07552,0.20605 80.95748,-13.8485 z M 321.88614,393.60377 c -3.6462,-19.07038 -2.23414,-17.2101 -23.58633,-31.07311 -10.65387,-6.91708 -20.74831,-13.47354 -22.43209,-14.56991 -1.68378,-1.09637 -3.06142,-1.42349 -3.06142,-0.72693 0,2.54778 48.8211,56.80808 50.02776,55.6014 0.37728,-0.37727 -0.0493,-4.53142 -0.94792,-9.23145 z m 31.79305,-27.25416 c 14.74263,-41.91969 14.05033,-39.36968 9.21583,-33.94568 -6.60592,7.41143 -27.49954,39.31748 -27.50251,41.99833 -0.005,4.59798 4.35666,26.30325 5.28575,26.30325 0.50512,0 6.35553,-15.46016 13.00093,-34.3559 z m -19.44932,-22.4504 c 24.06833,-34.3022 43.34493,-62.73966 43.34493,-63.94382 0,-0.71222 -10.56189,0.73938 -23.47086,3.22579 -72.88503,14.03848 -109.87087,21.59588 -109.87087,22.45015 0,0.53031 4.94722,4.4308 10.99384,8.66777 15.03888,10.53803 66.7074,44.22688 67.83065,44.22688 0.50014,0 5.52768,-6.58204 11.17231,-14.62677 z M 206.68785,312.7025 c 1.19286,-3.50087 2.16884,-6.87643 2.16884,-7.50126 0,-1.32879 -40.36287,-28.31305 -42.35047,-28.31305 -0.73919,0 -0.48459,1.22696 0.56579,2.72659 3.69324,5.27284 35.12268,39.45294 36.27794,39.45294 0.64298,0 2.14503,-2.86435 3.3379,-6.36522 z m 101.49483,-37.33435 c 38.53984,-7.58515 70.58408,-14.25596 71.20939,-14.82402 0.62534,-0.56808 -2.41012,-5.23581 -6.74545,-10.37274 -10.39666,-12.319 -71.04838,-80.36971 -81.49448,-91.43609 l -8.18644,-8.67255 -11.3482,31.09776 c -12.8512,35.21649 -36.12735,100.28935 -37.52633,104.91193 -0.72321,2.38963 -0.3839,3.06421 1.54627,3.07415 1.36004,0.007 34.00539,-6.19328 72.54524,-13.77844 z M 230.1285,247.2181 c 6.26082,-17.44106 11.38331,-31.9828 11.38331,-32.31496 0,-0.33216 -1.17761,-0.60393 -2.61691,-0.60393 -3.91122,0 -99.7069,19.06838 -101.86606,20.2767 -1.2665,0.70877 8.72746,8.01967 31.24108,22.85384 18.20682,11.99643 36.16473,23.71529 39.90646,26.0419 l 6.80315,4.23023 1.88282,-4.38637 c 1.03556,-2.41251 7.00532,-18.65634 13.26615,-36.09741 z m 199.17157,5.51891 c 4.69403,-13.28315 8.85006,-25.00008 9.23565,-26.03763 2.13507,-5.74511 -4.0144,1.4331 -16.02183,18.7021 l -13.58434,19.53691 4.89599,5.97491 c 2.69278,3.28619 5.35587,5.97489 5.91797,5.97489 0.56209,0 4.86255,-10.86803 9.55656,-24.15118 z m -28.47372,-4.80496 c 15.07861,-21.05538 50.32584,-73.44129 49.78079,-73.98632 -0.39399,-0.394 -23.59858,3.62609 -51.56576,8.93353 -27.96719,5.30743 -51.27954,9.64987 -51.80525,9.64987 -2.42217,0 -0.15707,3.37985 10.17343,15.18018 16.26583,18.58017 39.35459,43.33356 40.37336,43.28415 0.4849,-0.0235 1.85446,-1.40115 3.04343,-3.06141 z"
       id="path3"
       transform="scale(0.26458333)" />
    <path
       style="opacity:0;fill:#3974b8;fill-opacity:0;stroke-width:1.36063"
       d="m 343.05656,499.69134 c -2.37174,-2.43213 -13.42656,-14.6778 -24.56627,-27.2126 -11.13971,-12.5348 -20.74356,-22.79055 -21.3419,-22.79055 -0.59834,0 -30.96449,5.81486 -67.48034,12.92189 -36.51585,7.10703 -68.36827,12.92372 -70.78314,12.92598 -3.12316,0.003 -5.00193,-0.92879 -6.50805,-3.22741 -2.01684,-3.07809 -1.01755,-6.28591 21.04852,-67.56788 12.74123,-35.385 23.3234,-65.08416 23.51592,-65.99815 0.19252,-0.91398 -20.62067,-25.1024 -46.25154,-53.75206 -49.55178,-55.38795 -50.80235,-57.15804 -43.54015,-61.62785 1.68378,-1.03635 33.98173,-7.81778 71.77322,-15.06985 37.7915,-7.25207 69.13067,-13.61259 69.64262,-14.1345 0.51194,-0.5219 5.88488,-14.64135 11.93986,-31.37656 6.05499,-16.73521 11.61993,-31.56906 12.36653,-32.9641 2.05832,-3.84601 6.26302,-5.6698 9.31091,-4.03861 2.09491,1.12116 42.14364,44.839 47.13194,51.45 1.16143,1.53925 13.54616,-0.50273 71.95905,-11.86454 65.72944,-12.78494 70.77616,-13.57963 73.77192,-11.61673 1.89872,1.24408 3.21576,3.44146 3.21576,5.36525 0,1.79201 -10.40882,31.79439 -23.13071,66.67195 C 442.40882,260.66258 432,289.8223 432,290.58437 c 0,0.76209 16.39204,19.57519 36.42676,41.80692 52.36935,58.11218 57.4567,63.96453 57.4567,66.09665 0,1.05385 -1.07149,3.2188 -2.3811,4.81099 -2.05576,2.49935 -11.94188,4.71174 -72.35461,16.19197 l -69.97351,13.29705 -12.03133,33.20419 c -6.61722,18.26229 -13.03255,34.31052 -14.25626,35.66271 -3.28026,3.62465 -6.9794,3.01068 -11.83009,-1.96351 z m -9.47472,-45.24095 -1.78955,-9.52441 -4.50437,0.45171 c -10.93005,1.09609 -11.00345,1.7039 -1.41216,11.69223 4.82627,5.02606 8.93718,8.63578 9.13534,8.02159 0.19818,-0.61419 -0.44499,-5.40269 -1.42926,-10.64112 z m 24.10619,-2.11878 c 4.73917,-12.78558 4.66972,-14.09071 -0.69275,-13.01822 -2.33859,0.46771 -5.09386,0.85039 -6.12284,0.85039 -1.16471,0 -1.87087,1.5154 -1.87087,4.01492 0,5.70418 2.74004,17.75516 4.03699,17.75516 0.59963,0 2.6919,-4.32101 4.64947,-9.60225 z m -119.08888,-6.82944 c 62.48377,-12.15968 80.62684,-15.92816 81.66022,-16.96153 0.65478,-0.65479 -4.47009,-6.57033 -54.67803,-63.11396 -22.30821,-25.12326 -41.2272,-45.67865 -42.04221,-45.67865 -0.815,0 -2.98929,3.97984 -4.83174,8.8441 -4.73625,12.5041 -46.5877,128.1869 -46.5877,128.77438 0,1.00051 4.48665,0.19981 66.47946,-11.86434 z m 194.08116,-37.52898 c 37.41733,-7.21554 68.26075,-13.30743 68.54096,-13.53753 0.28021,-0.23011 -1.17805,-2.43415 -3.24056,-4.89789 -4.12469,-4.92705 -81.3625,-90.61301 -90.48595,-100.38316 l -5.69819,-6.10209 -1.71858,3.38083 c -1.92608,3.78903 -48.35516,133.78456 -48.35516,135.38834 0,1.58743 8.07552,0.20605 80.95748,-13.8485 z M 321.88614,393.60377 c -3.6462,-19.07038 -2.23414,-17.2101 -23.58633,-31.07311 -10.65387,-6.91708 -20.74831,-13.47354 -22.43209,-14.56991 -1.68378,-1.09637 -3.06142,-1.42349 -3.06142,-0.72693 0,2.54778 48.8211,56.80808 50.02776,55.6014 0.37728,-0.37727 -0.0493,-4.53142 -0.94792,-9.23145 z m 31.79305,-27.25416 c 14.74263,-41.91969 14.05033,-39.36968 9.21583,-33.94568 -6.60592,7.41143 -27.49954,39.31748 -27.50251,41.99833 -0.005,4.59798 4.35666,26.30325 5.28575,26.30325 0.50512,0 6.35553,-15.46016 13.00093,-34.3559 z m -19.44932,-22.4504 c 24.06833,-34.3022 43.34493,-62.73966 43.34493,-63.94382 0,-0.71222 -10.56189,0.73938 -23.47086,3.22579 -72.88503,14.03848 -109.87087,21.59588 -109.87087,22.45015 0,0.53031 4.94722,4.4308 10.99384,8.66777 15.03888,10.53803 66.7074,44.22688 67.83065,44.22688 0.50014,0 5.52768,-6.58204 11.17231,-14.62677 z M 206.68785,312.7025 c 1.19286,-3.50087 2.16884,-6.87643 2.16884,-7.50126 0,-1.32879 -40.36287,-28.31305 -42.35047,-28.31305 -0.73919,0 -0.48459,1.22696 0.56579,2.72659 3.69324,5.27284 35.12268,39.45294 36.27794,39.45294 0.64298,0 2.14503,-2.86435 3.3379,-6.36522 z m 101.49483,-37.33435 c 38.53984,-7.58515 70.58408,-14.25596 71.20939,-14.82402 0.62534,-0.56808 -2.41012,-5.23581 -6.74545,-10.37274 -10.39666,-12.319 -71.04838,-80.36971 -81.49448,-91.43609 l -8.18644,-8.67255 -11.3482,31.09776 c -12.8512,35.21649 -36.12735,100.28935 -37.52633,104.91193 -0.72321,2.38963 -0.3839,3.06421 1.54627,3.07415 1.36004,0.007 34.00539,-6.19328 72.54524,-13.77844 z M 230.1285,247.2181 c 6.26082,-17.44106 11.38331,-31.9828 11.38331,-32.31496 0,-0.33216 -1.17761,-0.60393 -2.61691,-0.60393 -3.91122,0 -99.7069,19.06838 -101.86606,20.2767 -1.2665,0.70877 8.72746,8.01967 31.24108,22.85384 18.20682,11.99643 36.16473,23.71529 39.90646,26.0419 l 6.80315,4.23023 1.88282,-4.38637 c 1.03556,-2.41251 7.00532,-18.65634 13.26615,-36.09741 z m 199.17157,5.51891 c 4.69403,-13.28315 8.85006,-25.00008 9.23565,-26.03763 2.13507,-5.74511 -4.0144,1.4331 -16.02183,18.7021 l -13.58434,19.53691 4.89599,5.97491 c 2.69278,3.28619 5.35587,5.97489 5.91797,5.97489 0.56209,0 4.86255,-10.86803 9.55656,-24.15118 z m -28.47372,-4.80496 c 15.07861,-21.05538 50.32584,-73.44129 49.78079,-73.98632 -0.39399,-0.394 -23.59858,3.62609 -51.56576,8.93353 -27.96719,5.30743 -51.27954,9.64987 -51.80525,9.64987 -2.42217,0 -0.15707,3.37985 10.17343,15.18018 16.26583,18.58017 39.35459,43.33356 40.37336,43.28415 0.4849,-0.0235 1.85446,-1.40115 3.04343,-3.06141 z"
       id="path4"
       transform="scale(0.26458333)" />
    <path
       style="opacity:0;fill:#3974b8;fill-opacity:0;stroke-width:1.36063"
       d="m 343.05656,499.69134 c -2.37174,-2.43213 -13.42656,-14.6778 -24.56627,-27.2126 -11.13971,-12.5348 -20.74356,-22.79055 -21.3419,-22.79055 -0.59834,0 -30.96449,5.81486 -67.48034,12.92189 -36.51585,7.10703 -68.36827,12.92372 -70.78314,12.92598 -3.12316,0.003 -5.00193,-0.92879 -6.50805,-3.22741 -2.01684,-3.07809 -1.01755,-6.28591 21.04852,-67.56788 12.74123,-35.385 23.3234,-65.08416 23.51592,-65.99815 0.19252,-0.91398 -20.62067,-25.1024 -46.25154,-53.75206 -49.55178,-55.38795 -50.80235,-57.15804 -43.54015,-61.62785 1.68378,-1.03635 33.98173,-7.81778 71.77322,-15.06985 37.7915,-7.25207 69.13067,-13.61259 69.64262,-14.1345 0.51194,-0.5219 5.88488,-14.64135 11.93986,-31.37656 6.05499,-16.73521 11.61993,-31.56906 12.36653,-32.9641 2.05832,-3.84601 6.26302,-5.6698 9.31091,-4.03861 2.09491,1.12116 42.14364,44.839 47.13194,51.45 1.16143,1.53925 13.54616,-0.50273 71.95905,-11.86454 65.72944,-12.78494 70.77616,-13.57963 73.77192,-11.61673 1.89872,1.24408 3.21576,3.44146 3.21576,5.36525 0,1.79201 -10.40882,31.79439 -23.13071,66.67195 C 442.40882,260.66258 432,289.8223 432,290.58437 c 0,0.76209 16.39204,19.57519 36.42676,41.80692 52.36935,58.11218 57.4567,63.96453 57.4567,66.09665 0,1.05385 -1.07149,3.2188 -2.3811,4.81099 -2.05576,2.49935 -11.94188,4.71174 -72.35461,16.19197 l -69.97351,13.29705 -12.03133,33.20419 c -6.61722,18.26229 -13.03255,34.31052 -14.25626,35.66271 -3.28026,3.62465 -6.9794,3.01068 -11.83009,-1.96351 z m -9.47472,-45.24095 -1.78955,-9.52441 -4.50437,0.45171 c -10.93005,1.09609 -11.00345,1.7039 -1.41216,11.69223 4.82627,5.02606 8.93718,8.63578 9.13534,8.02159 0.19818,-0.61419 -0.44499,-5.40269 -1.42926,-10.64112 z m 24.10619,-2.11878 c 4.73917,-12.78558 4.66972,-14.09071 -0.69275,-13.01822 -2.33859,0.46771 -5.09386,0.85039 -6.12284,0.85039 -1.16471,0 -1.87087,1.5154 -1.87087,4.01492 0,5.70418 2.74004,17.75516 4.03699,17.75516 0.59963,0 2.6919,-4.32101 4.64947,-9.60225 z m -119.08888,-6.82944 c 62.48377,-12.15968 80.62684,-15.92816 81.66022,-16.96153 0.65478,-0.65479 -4.47009,-6.57033 -54.67803,-63.11396 -22.30821,-25.12326 -41.2272,-45.67865 -42.04221,-45.67865 -0.815,0 -2.98929,3.97984 -4.83174,8.8441 -4.73625,12.5041 -46.5877,128.1869 -46.5877,128.77438 0,1.00051 4.48665,0.19981 66.47946,-11.86434 z m 194.08116,-37.52898 c 37.41733,-7.21554 68.26075,-13.30743 68.54096,-13.53753 0.28021,-0.23011 -1.17805,-2.43415 -3.24056,-4.89789 -4.12469,-4.92705 -81.3625,-90.61301 -90.48595,-100.38316 l -5.69819,-6.10209 -1.71858,3.38083 c -1.92608,3.78903 -48.35516,133.78456 -48.35516,135.38834 0,1.58743 8.07552,0.20605 80.95748,-13.8485 z M 321.88614,393.60377 c -3.6462,-19.07038 -2.23414,-17.2101 -23.58633,-31.07311 -10.65387,-6.91708 -20.74831,-13.47354 -22.43209,-14.56991 -1.68378,-1.09637 -3.06142,-1.42349 -3.06142,-0.72693 0,2.54778 48.8211,56.80808 50.02776,55.6014 0.37728,-0.37727 -0.0493,-4.53142 -0.94792,-9.23145 z m 31.79305,-27.25416 c 14.74263,-41.91969 14.05033,-39.36968 9.21583,-33.94568 -6.60592,7.41143 -27.49954,39.31748 -27.50251,41.99833 -0.005,4.59798 4.35666,26.30325 5.28575,26.30325 0.50512,0 6.35553,-15.46016 13.00093,-34.3559 z m -19.44932,-22.4504 c 24.06833,-34.3022 43.34493,-62.73966 43.34493,-63.94382 0,-0.71222 -10.56189,0.73938 -23.47086,3.22579 -72.88503,14.03848 -109.87087,21.59588 -109.87087,22.45015 0,0.53031 4.94722,4.4308 10.99384,8.66777 15.03888,10.53803 66.7074,44.22688 67.83065,44.22688 0.50014,0 5.52768,-6.58204 11.17231,-14.62677 z M 206.68785,312.7025 c 1.19286,-3.50087 2.16884,-6.87643 2.16884,-7.50126 0,-1.32879 -40.36287,-28.31305 -42.35047,-28.31305 -0.73919,0 -0.48459,1.22696 0.56579,2.72659 3.69324,5.27284 35.12268,39.45294 36.27794,39.45294 0.64298,0 2.14503,-2.86435 3.3379,-6.36522 z m 101.49483,-37.33435 c 38.53984,-7.58515 70.58408,-14.25596 71.20939,-14.82402 0.62534,-0.56808 -2.41012,-5.23581 -6.74545,-10.37274 -10.39666,-12.319 -71.04838,-80.36971 -81.49448,-91.43609 l -8.18644,-8.67255 -11.3482,31.09776 c -12.8512,35.21649 -36.12735,100.28935 -37.52633,104.91193 -0.72321,2.38963 -0.3839,3.06421 1.54627,3.07415 1.36004,0.007 34.00539,-6.19328 72.54524,-13.77844 z M 230.1285,247.2181 c 6.26082,-17.44106 11.38331,-31.9828 11.38331,-32.31496 0,-0.33216 -1.17761,-0.60393 -2.61691,-0.60393 -3.91122,0 -99.7069,19.06838 -101.86606,20.2767 -1.2665,0.70877 8.72746,8.01967 31.24108,22.85384 18.20682,11.99643 36.16473,23.71529 39.90646,26.0419 l 6.80315,4.23023 1.88282,-4.38637 c 1.03556,-2.41251 7.00532,-18.65634 13.26615,-36.09741 z m 199.17157,5.51891 c 4.69403,-13.28315 8.85006,-25.00008 9.23565,-26.03763 2.13507,-5.74511 -4.0144,1.4331 -16.02183,18.7021 l -13.58434,19.53691 4.89599,5.97491 c 2.69278,3.28619 5.35587,5.97489 5.91797,5.97489 0.56209,0 4.86255,-10.86803 9.55656,-24.15118 z m -28.47372,-4.80496 c 15.07861,-21.05538 50.32584,-73.44129 49.78079,-73.98632 -0.39399,-0.394 -23.59858,3.62609 -51.56576,8.93353 -27.96719,5.30743 -51.27954,9.64987 -51.80525,9.64987 -2.42217,0 -0.15707,3.37985 10.17343,15.18018 16.26583,18.58017 39.35459,43.33356 40.37336,43.28415 0.4849,-0.0235 1.85446,-1.40115 3.04343,-3.06141 z"
       id="path5"
       transform="scale(0.26458333)" />
    <path
       style="opacity:0;fill:#3974b8;fill-opacity:0;stroke-width:1.36063"
       d="m 343.05656,499.69134 c -2.37174,-2.43213 -13.42656,-14.6778 -24.56627,-27.2126 -11.13971,-12.5348 -20.74356,-22.79055 -21.3419,-22.79055 -0.59834,0 -30.96449,5.81486 -67.48034,12.92189 -36.51585,7.10703 -68.36827,12.92372 -70.78314,12.92598 -3.12316,0.003 -5.00193,-0.92879 -6.50805,-3.22741 -2.01684,-3.07809 -1.01755,-6.28591 21.04852,-67.56788 12.74123,-35.385 23.3234,-65.08416 23.51592,-65.99815 0.19252,-0.91398 -20.62067,-25.1024 -46.25154,-53.75206 -49.55178,-55.38795 -50.80235,-57.15804 -43.54015,-61.62785 1.68378,-1.03635 33.98173,-7.81778 71.77322,-15.06985 37.7915,-7.25207 69.13067,-13.61259 69.64262,-14.1345 0.51194,-0.5219 5.88488,-14.64135 11.93986,-31.37656 6.05499,-16.73521 11.61993,-31.56906 12.36653,-32.9641 2.05832,-3.84601 6.26302,-5.6698 9.31091,-4.03861 2.09491,1.12116 42.14364,44.839 47.13194,51.45 1.16143,1.53925 13.54616,-0.50273 71.95905,-11.86454 65.72944,-12.78494 70.77616,-13.57963 73.77192,-11.61673 1.89872,1.24408 3.21576,3.44146 3.21576,5.36525 0,1.79201 -10.40882,31.79439 -23.13071,66.67195 C 442.40882,260.66258 432,289.8223 432,290.58437 c 0,0.76209 16.39204,19.57519 36.42676,41.80692 52.36935,58.11218 57.4567,63.96453 57.4567,66.09665 0,1.05385 -1.07149,3.2188 -2.3811,4.81099 -2.05576,2.49935 -11.94188,4.71174 -72.35461,16.19197 l -69.97351,13.29705 -12.03133,33.20419 c -6.61722,18.26229 -13.03255,34.31052 -14.25626,35.66271 -3.28026,3.62465 -6.9794,3.01068 -11.83009,-1.96351 z m -9.47472,-45.24095 -1.78955,-9.52441 -4.50437,0.45171 c -10.93005,1.09609 -11.00345,1.7039 -1.41216,11.69223 4.82627,5.02606 8.93718,8.63578 9.13534,8.02159 0.19818,-0.61419 -0.44499,-5.40269 -1.42926,-10.64112 z m 24.10619,-2.11878 c 4.73917,-12.78558 4.66972,-14.09071 -0.69275,-13.01822 -2.33859,0.46771 -5.09386,0.85039 -6.12284,0.85039 -1.16471,0 -1.87087,1.5154 -1.87087,4.01492 0,5.70418 2.74004,17.75516 4.03699,17.75516 0.59963,0 2.6919,-4.32101 4.64947,-9.60225 z m -119.08888,-6.82944 c 62.48377,-12.15968 80.62684,-15.92816 81.66022,-16.96153 0.65478,-0.65479 -4.47009,-6.57033 -54.67803,-63.11396 -22.30821,-25.12326 -41.2272,-45.67865 -42.04221,-45.67865 -0.815,0 -2.98929,3.97984 -4.83174,8.8441 -4.73625,12.5041 -46.5877,128.1869 -46.5877,128.77438 0,1.00051 4.48665,0.19981 66.47946,-11.86434 z m 194.08116,-37.52898 c 37.41733,-7.21554 68.26075,-13.30743 68.54096,-13.53753 0.28021,-0.23011 -1.17805,-2.43415 -3.24056,-4.89789 -4.12469,-4.92705 -81.3625,-90.61301 -90.48595,-100.38316 l -5.69819,-6.10209 -1.71858,3.38083 c -1.92608,3.78903 -48.35516,133.78456 -48.35516,135.38834 0,1.58743 8.07552,0.20605 80.95748,-13.8485 z M 321.88614,393.60377 c -3.6462,-19.07038 -2.23414,-17.2101 -23.58633,-31.07311 -10.65387,-6.91708 -20.74831,-13.47354 -22.43209,-14.56991 -1.68378,-1.09637 -3.06142,-1.42349 -3.06142,-0.72693 0,2.54778 48.8211,56.80808 50.02776,55.6014 0.37728,-0.37727 -0.0493,-4.53142 -0.94792,-9.23145 z m 31.79305,-27.25416 c 14.74263,-41.91969 14.05033,-39.36968 9.21583,-33.94568 -6.60592,7.41143 -27.49954,39.31748 -27.50251,41.99833 -0.005,4.59798 4.35666,26.30325 5.28575,26.30325 0.50512,0 6.35553,-15.46016 13.00093,-34.3559 z m -19.44932,-22.4504 c 24.06833,-34.3022 43.34493,-62.73966 43.34493,-63.94382 0,-0.71222 -10.56189,0.73938 -23.47086,3.22579 -72.88503,14.03848 -109.87087,21.59588 -109.87087,22.45015 0,0.53031 4.94722,4.4308 10.99384,8.66777 15.03888,10.53803 66.7074,44.22688 67.83065,44.22688 0.50014,0 5.52768,-6.58204 11.17231,-14.62677 z M 206.68785,312.7025 c 1.19286,-3.50087 2.16884,-6.87643 2.16884,-7.50126 0,-1.32879 -40.36287,-28.31305 -42.35047,-28.31305 -0.73919,0 -0.48459,1.22696 0.56579,2.72659 3.69324,5.27284 35.12268,39.45294 36.27794,39.45294 0.64298,0 2.14503,-2.86435 3.3379,-6.36522 z m 96.73262,-36.54115 c 35.17229,-7.07577 66.39874,-13.21484 69.39213,-13.64235 2.99338,-0.42753 5.95416,-1.27916 6.57947,-1.89253 0.62534,-0.61336 -2.41012,-5.31815 -6.74545,-10.45508 -10.39666,-12.319 -71.04838,-80.36971 -81.49448,-91.43609 l -8.18644,-8.67255 -11.3482,31.09776 c -12.8512,35.21649 -36.12735,100.28935 -37.52633,104.91193 -0.77728,2.56829 -0.41861,3.05276 2.22659,3.0077 1.73421,-0.0295 31.93043,-5.84301 67.10271,-12.91879 z M 230.1285,247.2181 c 6.26082,-17.44106 11.38331,-31.9828 11.38331,-32.31496 0,-0.33216 -1.17761,-0.60393 -2.61691,-0.60393 -3.91122,0 -99.7069,19.06838 -101.86606,20.2767 -1.2665,0.70877 8.72746,8.01967 31.24108,22.85384 18.20682,11.99643 36.16473,23.71529 39.90646,26.0419 l 6.80315,4.23023 1.88282,-4.38637 c 1.03556,-2.41251 7.00532,-18.65634 13.26615,-36.09741 z m 199.17157,5.51891 c 4.69403,-13.28315 8.85006,-25.00008 9.23565,-26.03763 2.13507,-5.74511 -4.0144,1.4331 -16.02183,18.7021 l -13.58434,19.53691 4.89599,5.97491 c 2.69278,3.28619 5.35587,5.97489 5.91797,5.97489 0.56209,0 4.86255,-10.86803 9.55656,-24.15118 z m -28.47372,-4.80496 c 15.07861,-21.05538 50.32584,-73.44129 49.78079,-73.98632 -0.39399,-0.394 -23.59858,3.62609 -51.56576,8.93353 -27.96719,5.30743 -51.27954,9.64987 -51.80525,9.64987 -2.42217,0 -0.15707,3.37985 10.17343,15.18018 16.26583,18.58017 39.35459,43.33356 40.37336,43.28415 0.4849,-0.0235 1.85446,-1.40115 3.04343,-3.06141 z"
       id="path6"
       transform="scale(0.26458333)" />
    <path
       style="opacity:0;fill:#3974b8;fill-opacity:0;stroke-width:0.340157"
       d="m 346.62047,503.634 c -1.80668,-0.84253 -1.85985,-0.89971 -27.05913,-29.11431 -19.37004,-21.68784 -21.97412,-24.47862 -22.74913,-24.38016 -0.48136,0.0611 -31.56591,6.08174 -69.07678,13.37909 -52.01239,10.11849 -68.62189,13.23478 -69.97227,13.12824 -2.39227,-0.18872 -4.70716,-1.6481 -6.04393,-3.81027 -0.91212,-1.47533 -1.02847,-1.95897 -1.02068,-4.24299 0.009,-2.5472 0.28254,-3.33749 23.04567,-66.50305 12.67028,-35.15887 23.03688,-64.11429 23.03688,-64.34538 0,-0.23109 -20.81673,-23.66192 -46.25941,-52.0685 -25.44268,-28.40658 -46.5282,-52.18407 -46.8567,-52.83887 -0.40121,-0.79974 -0.59727,-1.98094 -0.59727,-3.59833 0,-2.08642 0.1374,-2.63002 1.02946,-4.0729 0.63262,-1.02324 1.66193,-2.05614 2.67014,-2.67947 1.53112,-0.94662 6.30639,-1.91483 71.51514,-14.50006 38.43096,-7.41713 69.95171,-13.56294 70.04611,-13.65734 0.0944,-0.0944 5.45386,-14.67559 11.90989,-32.40264 6.45604,-17.72704 11.95916,-32.65819 12.22916,-33.18032 0.7439,-1.43853 3.07603,-3.26718 4.7725,-3.74216 1.91392,-0.53587 4.46022,-0.29999 6.15688,0.57035 0.92896,0.47652 8.06423,8.23496 24.31376,26.43722 12.64943,14.16952 23.14384,25.90764 23.32091,26.08471 0.2025,0.2025 25.99785,-4.67087 69.52388,-13.13477 53.76382,-10.45469 69.6324,-13.42945 71.13151,-13.33449 4.00164,0.2535 7.09908,3.41701 7.36005,7.51706 0.13028,2.04728 -0.34754,3.41017 -23.38446,66.69979 -12.93459,35.5354 -23.47358,64.81009 -23.41997,65.05488 0.0536,0.24479 20.76204,23.41258 46.01874,51.48398 28.24399,31.39162 46.28135,51.70279 46.85669,52.76349 2.34841,4.32956 0.0773,9.97534 -4.619,11.48243 -0.59323,0.19039 -32.07549,6.2588 -69.96053,13.48536 -37.88504,7.22656 -68.91092,13.16676 -68.9464,13.20045 -0.0355,0.0337 -5.43451,14.88125 -11.99782,32.9946 -6.56333,18.11336 -12.14659,33.3404 -12.40726,33.83785 -0.69414,1.32471 -2.55992,3.00465 -4.00767,3.60849 -1.73162,0.72226 -4.87397,0.66382 -6.55896,-0.12198 z m -12.15885,-40.59463 c -0.097,-1.16929 -0.83498,-5.68488 -1.63989,-10.03465 -1.32936,-7.18392 -1.52561,-7.90866 -2.14158,-7.90866 -1.057,0 -10.83611,2.05665 -11.52037,2.42286 -0.45223,0.24203 -0.52825,0.4779 -0.29264,0.90796 1.02806,1.8765 14.73431,16.73847 15.43682,16.73847 0.20183,0 0.26424,-0.84154 0.15766,-2.12598 z m 19.62119,-3.13296 c 1.3058,-2.76023 7.33451,-19.43057 7.33451,-20.28108 0,-0.51501 -1.60838,-0.35031 -6.97323,0.71408 -2.80629,0.55677 -5.14063,1.01289 -5.1874,1.01361 -0.32103,0.005 0.0302,4.68968 0.60267,8.03825 0.70657,4.13298 2.32128,11.66298 2.59843,12.11739 0.35656,0.58464 0.79494,0.15241 1.62502,-1.60225 z M 187.39919,454.9452 c 63.18303,-12.0798 131.94535,-25.80722 132.61231,-26.47418 0.36132,-0.36132 -10.41325,-12.65904 -58.74862,-67.0537 -29.11448,-32.76425 -37.65424,-42.22125 -38.01699,-42.10033 -0.4564,0.15213 -1.16187,1.91008 -6.72537,16.7586 -7.43735,19.84971 -43.1266,118.42497 -43.81214,121.01102 -0.0868,0.32741 -0.0376,0.59528 0.1094,0.59528 0.14697,0 6.7086,-1.23151 14.58141,-2.73669 z m 175.889,-34.18666 c 3.55465,-0.63088 17.86677,-3.3616 31.80472,-6.06826 13.93796,-2.70666 43.25103,-8.38317 65.14016,-12.61446 21.88914,-4.23129 40.08429,-7.80774 40.43367,-7.94765 0.65616,-0.26278 -1.91583,-3.17072 -58.25704,-65.86652 -29.55691,-32.89055 -40.50114,-44.5672 -41.13702,-43.89 -0.52873,0.5631 -8.02409,21.40694 -37.42969,104.08819 -6.52066,18.33449 -11.78162,33.46606 -11.69103,33.62571 0.23219,0.40918 3.64553,0.002 11.13623,-1.32701 z m -40.42722,-18.09712 c -0.0904,-0.3274 -0.26409,-1.36063 -0.38592,-2.29607 -0.62691,-4.81372 -4.62198,-23.64289 -5.20303,-24.5224 -0.23484,-0.35548 -34.28729,-22.72133 -40.80688,-26.80221 -1.72938,-1.08248 -3.30998,-1.91293 -3.51245,-1.84544 -0.4972,0.16573 7.29242,9.18486 27.56014,31.91021 12.82917,14.38482 21.79496,24.15118 22.17146,24.15118 0.1876,0 0.2671,-0.26787 0.17668,-0.59527 z m 24.44582,-19.81418 c 11.77229,-32.9298 18.98009,-53.75091 18.70322,-54.02778 -0.0886,-0.0886 -0.50766,0.26998 -0.93123,0.79687 -1.80554,2.24601 -14.52149,20.60887 -21.59681,31.18755 l -7.6662,11.46215 0.0466,2.05986 c 0.073,3.22997 4.00275,24.83226 4.7347,26.02727 0.27718,0.45254 0.46287,-0.0319 6.70976,-17.50592 z m -20.58242,-29.27555 c 12.31815,-17.20187 51.02051,-73.39763 51.02051,-74.08169 0,-0.36298 0.71646,-0.48939 -22.11023,3.90092 -47.76599,9.18694 -110.03504,21.44005 -111.03708,21.84953 -0.56096,0.22924 -0.26537,0.56465 2.04095,2.31584 6.09081,4.62476 23.05483,16.02204 54.57093,36.66349 21.47887,14.06757 21.55136,14.1139 21.92115,14.01121 0.17662,-0.0491 1.79382,-2.14573 3.59377,-4.6593 z M 204.3548,316.94173 c 1.38176,-3.12997 3.61804,-9.45031 3.84351,-10.86282 0.24248,-1.51902 0.95151,-0.89074 -7.67548,-6.80126 -11.69943,-8.01552 -34.11889,-22.55954 -34.77529,-22.55954 -0.15667,0 -0.13876,0.26787 0.0398,0.59528 1.08978,1.99817 36.74136,41.58425 37.45115,41.58425 0.13907,0 0.64141,-0.88016 1.11631,-1.95591 z m 38.68772,-29.34631 c 25.99042,-4.92073 135.52123,-26.69996 136.111,-27.06446 0.53439,-0.33027 0.30528,-0.88602 -1.28278,-3.11148 -4.03973,-5.66118 -32.32955,-37.6993 -76.48461,-86.61854 -8.42253,-9.3313 -15.8722,-17.59713 -16.55483,-18.36851 -0.68263,-0.77138 -1.34973,-1.29666 -1.48246,-1.16729 -0.94956,0.92555 -49.49057,135.33617 -49.49057,137.03998 0,0.6456 0.53638,0.95368 1.36063,0.78151 0.28063,-0.0586 3.80126,-0.72966 7.82362,-1.49121 z m -20.75995,-20.06156 c 8.99479,-24.78405 18.71901,-52.28836 18.71901,-52.94551 0,-0.32338 -2.37029,0.0217 -10.92104,1.59009 -31.58496,5.79325 -93.46504,18.20448 -94.14267,18.88212 -0.24052,0.24052 -2.44455,-1.27528 17.30492,11.90129 23.47865,15.66462 48.77267,32.11918 58.16508,37.83823 l 3.57166,2.17478 0.71953,-1.64176 c 0.39574,-0.90297 3.35832,-8.91263 6.58351,-17.79924 z m 199.33613,5.01732 c 6.22876,-16.60396 16.82162,-47.16454 16.469,-47.5133 -0.10776,-0.10658 -0.56854,0.26543 -1.02396,0.82669 -2.8214,3.47708 -27.34405,38.65876 -27.34405,39.22942 0,0.62654 9.67069,11.28396 10.23922,11.28396 0.12333,0 0.87023,-1.72204 1.65979,-3.82677 z m -22.1705,-23.81102 c 1.90627,-2.58816 21.05226,-30.26853 33.11572,-47.87717 12.4568,-18.18275 17.97466,-26.41442 17.97466,-26.81494 0,-0.46433 -10.69371,1.49295 -61.90866,11.33117 -16.93134,3.25246 -32.54457,6.23509 -34.69606,6.62809 -6.70205,1.2242 -7.48347,1.41005 -7.48347,1.77984 0,1.16825 36.24383,41.82552 47.92641,53.76246 1.60212,1.637 3.10266,2.97637 3.33451,2.97637 0.23186,0 1.01346,-0.80362 1.73689,-1.78582 z"
       id="path7"
       transform="scale(0.26458333)" />
    <path
       style="opacity:0;fill:#3974b8;fill-opacity:1;stroke-width:0.707107"
       d="m 347.14586,503.52249 c -1.3315,-0.57988 -11.20835,-11.0493 -25.65666,-27.19593 -13.81315,-15.43681 -23.99169,-26.2467 -24.70516,-26.23758 -0.66738,0.009 -32.07786,6.02026 -69.80109,13.35941 -60.61296,11.7924 -68.86778,13.24992 -70.99669,12.53563 -3.03498,-1.01828 -5.138,-3.80556 -5.20661,-6.90067 -0.0325,-1.4678 8.89103,-27.24244 23.08246,-66.67088 12.72452,-35.3529 23.00139,-64.62712 22.83748,-65.05383 -0.16391,-0.42669 -21.16404,-24.07365 -46.66695,-52.5488 -36.84936,-41.14394 -46.46182,-52.26807 -46.82135,-54.18454 -0.5281,-2.81501 0.9699,-6.25338 3.42535,-7.86226 0.88102,-0.57727 33.09195,-7.13076 71.57984,-14.56331 38.4879,-7.43254 70.09278,-13.62759 70.23307,-13.76677 0.14029,-0.13917 5.61411,-14.9875 12.16405,-32.99628 10.14742,-27.89993 12.22937,-33.03088 14.075,-34.68779 2.34811,-2.10802 5.12264,-2.49001 8.13077,-1.11941 1.38239,0.62986 43.68042,47.04196 47.43772,52.0517 0.62635,0.83514 11.85759,-1.16218 70.35713,-12.512 38.28648,-7.42817 70.18444,-13.50329 70.88434,-13.50027 3.57176,0.0154 7.56628,4.14276 7.56628,7.81786 0,0.83525 -10.2191,29.56843 -22.70912,63.85151 -12.49002,34.28307 -23.13738,63.5313 -23.66079,64.99606 l -0.95165,2.66319 41.16167,45.78728 c 22.63892,25.18301 43.78681,48.72176 46.99531,52.30833 5.51055,6.15991 5.83363,6.70062 5.83363,9.76345 0,2.62771 -0.38498,3.62738 -2.03072,5.27311 -1.11689,1.1169 -2.78743,2.21849 -3.71231,2.448 -0.92487,0.22951 -32.35328,6.27306 -69.8409,13.43011 -37.48763,7.15705 -68.38955,13.26998 -68.67094,13.58428 -0.2814,0.31431 -5.84711,15.36768 -12.36826,33.45194 -6.52114,18.08425 -12.37109,33.48123 -12.99989,34.21549 -1.07198,1.25179 -5.01932,3.29493 -6.24708,3.23349 -0.30418,-0.0152 -1.52724,-0.45195 -2.71793,-0.97052 z m -13.81499,-48.59311 c -1.07877,-6.17603 -1.94934,-9.37514 -2.62144,-9.63305 -0.97832,-0.37542 -11.31848,1.58077 -12.00977,2.27205 -0.53408,0.53408 2.88131,4.72882 9.59108,11.77965 3.36641,3.53751 6.24102,6.07104 6.38801,5.63004 0.147,-0.44098 -0.45955,-4.9629 -1.34788,-10.04869 z m 24.31796,-3.68208 c 4.72139,-12.93123 4.58205,-11.79177 1.43229,-11.71255 -1.48462,0.0373 -4.29029,0.43569 -6.23484,0.88525 -3.12671,0.72287 -3.56217,1.05002 -3.76591,2.82928 -0.21841,1.90742 2.45962,17.06754 3.25421,18.42179 0.67552,1.15131 2.12883,-1.69933 5.31425,-10.42377 z m -149.40227,-0.13722 c 43.26784,-8.33452 109.47194,-21.54168 111.21491,-22.18644 1.52269,-0.56328 4.67843,3.22908 -29.17879,-35.06516 -51.73863,-58.51905 -66.2069,-74.59977 -67.11947,-74.59977 -0.78658,0 -11.96216,30.0659 -36.27105,97.58074 -14.12009,39.21674 -14.73892,41.01219 -14.13559,41.01219 0.27049,0 16.24099,-3.0337 35.48999,-6.74156 z m 152.46205,-29.7012 c 10.41707,-1.80383 137.6828,-26.50631 139.34805,-27.04768 1.40879,-0.45799 0.77958,-1.3554 -7.07106,-10.08512 -4.73961,-5.27032 -23.76456,-26.43833 -42.27768,-47.04003 -37.84802,-42.11787 -48.67127,-53.66196 -49.51764,-52.8156 -0.32041,0.32041 -2.53163,5.98316 -4.91383,12.58388 -8.11208,22.47742 -44.49083,124.80994 -44.49083,125.15163 0,0.5824 2.41109,0.38052 8.92299,-0.74708 z M 320.351,388.20328 c -1.37858,-6.59095 -2.5065,-12.08251 -2.5065,-12.20348 0,-0.22774 -22.60121,-15.11525 -36.64877,-24.14067 -8.06301,-5.18041 -10.35553,-5.94491 -7.08967,-2.36423 0.97176,1.06544 6.50934,7.34654 12.30574,13.95798 5.79639,6.61145 16.27414,18.37682 23.28389,26.14526 11.02426,12.21745 12.77314,13.88575 12.95341,12.35656 0.11462,-0.97234 -0.91953,-7.16047 -2.2981,-13.75142 z m 26.17821,-2.58635 c 11.16211,-31.15291 19.44514,-55.33035 19.25288,-56.19749 -0.23822,-1.07441 -7.25722,8.64144 -20.91019,28.94433 l -9.48971,14.11184 0.48072,3.97392 c 0.57034,4.71487 2.97067,17.66056 4.00891,21.62129 0.93681,3.57377 0.86965,3.6994 6.65739,-12.45389 z m -18.84203,-32.96 c 27.78692,-39.64353 50.53042,-72.96288 50.09858,-73.39472 -0.29555,-0.29554 -29.58109,5.28772 -89.63975,17.08972 -49.33451,9.69462 -45.15524,8.66375 -42.72834,10.53953 8.97082,6.93369 75.80782,51.16415 77.37657,51.20521 0.58337,0.0153 2.78519,-2.43262 4.89294,-5.43974 z M 206.49342,311.96232 c 1.09897,-3.23679 1.78987,-6.4278 1.53533,-7.09112 -0.43732,-1.13965 -40.36786,-28.0389 -41.62229,-28.0389 -1.33272,0 -0.1406,1.5634 9.48855,12.44362 20.52479,23.1915 26.94326,29.94666 27.78799,29.2456 0.44676,-0.37078 1.71144,-3.32242 2.81042,-6.5592 z m 72.4602,-31.22427 c 84.93729,-16.67047 100.03752,-19.82225 100.24979,-20.92451 0.31197,-1.61991 -5.4119,-8.36212 -40.47975,-47.68151 -39.61272,-44.41526 -55.01857,-61.24776 -55.54695,-60.69083 -0.60182,0.63435 -10.89603,28.58445 -27.69171,75.18652 -16.92635,46.96463 -21.78621,60.78403 -21.78621,61.95074 0,0.82108 0.48529,0.99234 1.94454,0.68624 1.0695,-0.22433 20.55913,-4.06133 43.31029,-8.52665 z m -58.55452,-7.48903 c 8.6367,-23.45859 20.37076,-56.89075 20.37076,-58.03947 0,-0.99891 -1.08655,-0.93175 -9.72272,0.60088 -7.50116,1.33121 -85.43806,16.70886 -93.33809,18.41644 -0.87505,0.18914 -1.591,0.62154 -1.591,0.96089 0,1.49349 77.24135,51.84202 78.75732,51.3367 0.39883,-0.13294 2.88451,-6.10689 5.52373,-13.27544 z m 203.87714,-7.43374 c 6.91205,-18.88958 13.77641,-38.95842 13.77641,-40.27713 0,-0.80781 -1.61602,0.87644 -4.12605,4.30025 -7.89724,10.77225 -24.15817,34.52477 -24.15039,35.27675 0.0125,1.20472 9.27444,11.09794 10.12454,10.81457 0.42246,-0.14082 2.39143,-4.69231 4.37549,-10.11444 z m -19.60397,-24.16154 c 22.09674,-31.58371 46.3428,-67.35313 45.93278,-67.76314 -0.49484,-0.49485 -100.6268,18.29613 -103.34473,19.3939 -1.17684,0.47532 -0.52026,1.50163 5.29764,8.28083 16.81869,19.59771 43.98121,49.10402 45.20351,49.10402 0.33179,0 3.44165,-4.05702 6.9108,-9.01561 z"
       id="path9"
       transform="scale(0.26458333)" />
    <path
       style="opacity:0;fill:#3974b8;fill-opacity:1;stroke-width:0.707107"
       d="m 347.14586,503.52249 c -1.3315,-0.57988 -11.20835,-11.0493 -25.65666,-27.19593 -13.81315,-15.43681 -23.99169,-26.2467 -24.70516,-26.23758 -0.66738,0.009 -32.07786,6.02026 -69.80109,13.35941 -60.61296,11.7924 -68.86778,13.24992 -70.99669,12.53563 -3.03498,-1.01828 -5.138,-3.80556 -5.20661,-6.90067 -0.0325,-1.4678 8.89103,-27.24244 23.08246,-66.67088 12.72452,-35.3529 23.00139,-64.62712 22.83748,-65.05383 -0.16391,-0.42669 -21.16404,-24.07365 -46.66695,-52.5488 -36.84936,-41.14394 -46.46182,-52.26807 -46.82135,-54.18454 -0.5281,-2.81501 0.9699,-6.25338 3.42535,-7.86226 0.88102,-0.57727 33.09195,-7.13076 71.57984,-14.56331 38.4879,-7.43254 70.09278,-13.62759 70.23307,-13.76677 0.14029,-0.13917 5.61411,-14.9875 12.16405,-32.99628 10.14742,-27.89993 12.22937,-33.03088 14.075,-34.68779 2.34811,-2.10802 5.12264,-2.49001 8.13077,-1.11941 1.38239,0.62986 43.68042,47.04196 47.43772,52.0517 0.62635,0.83514 11.85759,-1.16218 70.35713,-12.512 38.28648,-7.42817 70.18444,-13.50329 70.88434,-13.50027 3.57176,0.0154 7.56628,4.14276 7.56628,7.81786 0,0.83525 -10.2191,29.56843 -22.70912,63.85151 -12.49002,34.28307 -23.13738,63.5313 -23.66079,64.99606 l -0.95165,2.66319 41.16167,45.78728 c 22.63892,25.18301 43.78681,48.72176 46.99531,52.30833 5.51055,6.15991 5.83363,6.70062 5.83363,9.76345 0,2.62771 -0.38498,3.62738 -2.03072,5.27311 -1.11689,1.1169 -2.78743,2.21849 -3.71231,2.448 -0.92487,0.22951 -32.35328,6.27306 -69.8409,13.43011 -37.48763,7.15705 -68.38955,13.26998 -68.67094,13.58428 -0.2814,0.31431 -5.84711,15.36768 -12.36826,33.45194 -6.52114,18.08425 -12.37109,33.48123 -12.99989,34.21549 -1.07198,1.25179 -5.01932,3.29493 -6.24708,3.23349 -0.30418,-0.0152 -1.52724,-0.45195 -2.71793,-0.97052 z m -13.81499,-48.59311 c -1.07877,-6.17603 -1.94934,-9.37514 -2.62144,-9.63305 -0.97832,-0.37542 -11.31848,1.58077 -12.00977,2.27205 -0.53408,0.53408 2.88131,4.72882 9.59108,11.77965 3.36641,3.53751 6.24102,6.07104 6.38801,5.63004 0.147,-0.44098 -0.45955,-4.9629 -1.34788,-10.04869 z m 24.31796,-3.68208 c 4.72139,-12.93123 4.58205,-11.79177 1.43229,-11.71255 -1.48462,0.0373 -4.29029,0.43569 -6.23484,0.88525 -3.12671,0.72287 -3.56217,1.05002 -3.76591,2.82928 -0.21841,1.90742 2.45962,17.06754 3.25421,18.42179 0.67552,1.15131 2.12883,-1.69933 5.31425,-10.42377 z m -149.40227,-0.13722 c 43.26784,-8.33452 109.47194,-21.54168 111.21491,-22.18644 1.52269,-0.56328 4.67843,3.22908 -29.17879,-35.06516 -51.73863,-58.51905 -66.2069,-74.59977 -67.11947,-74.59977 -0.78658,0 -11.96216,30.0659 -36.27105,97.58074 -14.12009,39.21674 -14.73892,41.01219 -14.13559,41.01219 0.27049,0 16.24099,-3.0337 35.48999,-6.74156 z m 152.46205,-29.7012 c 10.41707,-1.80383 137.6828,-26.50631 139.34805,-27.04768 1.40879,-0.45799 0.77958,-1.3554 -7.07106,-10.08512 -4.73961,-5.27032 -23.76456,-26.43833 -42.27768,-47.04003 -37.84802,-42.11787 -48.67127,-53.66196 -49.51764,-52.8156 -0.32041,0.32041 -2.53163,5.98316 -4.91383,12.58388 -8.11208,22.47742 -44.49083,124.80994 -44.49083,125.15163 0,0.5824 2.41109,0.38052 8.92299,-0.74708 z M 320.351,388.20328 c -1.37858,-6.59095 -2.5065,-12.08251 -2.5065,-12.20348 0,-0.22774 -22.60121,-15.11525 -36.64877,-24.14067 -8.06301,-5.18041 -10.35553,-5.94491 -7.08967,-2.36423 0.97176,1.06544 6.50934,7.34654 12.30574,13.95798 5.79639,6.61145 16.27414,18.37682 23.28389,26.14526 11.02426,12.21745 12.77314,13.88575 12.95341,12.35656 0.11462,-0.97234 -0.91953,-7.16047 -2.2981,-13.75142 z m 26.17821,-2.58635 c 11.16211,-31.15291 19.44514,-55.33035 19.25288,-56.19749 -0.23822,-1.07441 -7.25722,8.64144 -20.91019,28.94433 l -9.48971,14.11184 0.48072,3.97392 c 0.57034,4.71487 2.97067,17.66056 4.00891,21.62129 0.93681,3.57377 0.86965,3.6994 6.65739,-12.45389 z m -18.84203,-32.96 c 27.78692,-39.64353 50.53042,-72.96288 50.09858,-73.39472 -0.29555,-0.29554 -29.58109,5.28772 -89.63975,17.08972 -49.33451,9.69462 -45.15524,8.66375 -42.72834,10.53953 8.97082,6.93369 75.80782,51.16415 77.37657,51.20521 0.58337,0.0153 2.78519,-2.43262 4.89294,-5.43974 z M 206.49342,311.96232 c 1.09897,-3.23679 1.78987,-6.4278 1.53533,-7.09112 -0.43732,-1.13965 -40.36786,-28.0389 -41.62229,-28.0389 -1.33272,0 -0.1406,1.5634 9.48855,12.44362 20.52479,23.1915 26.94326,29.94666 27.78799,29.2456 0.44676,-0.37078 1.71144,-3.32242 2.81042,-6.5592 z m 72.4602,-31.22427 c 84.93729,-16.67047 100.03752,-19.82225 100.24979,-20.92451 0.31197,-1.61991 -5.4119,-8.36212 -40.47975,-47.68151 -39.61272,-44.41526 -55.01857,-61.24776 -55.54695,-60.69083 -0.60182,0.63435 -10.89603,28.58445 -27.69171,75.18652 -16.92635,46.96463 -21.78621,60.78403 -21.78621,61.95074 0,0.82108 0.48529,0.99234 1.94454,0.68624 1.0695,-0.22433 20.55913,-4.06133 43.31029,-8.52665 z m -58.55452,-7.48903 c 8.6367,-23.45859 20.37076,-56.89075 20.37076,-58.03947 0,-0.99891 -1.08655,-0.93175 -9.72272,0.60088 -7.50116,1.33121 -85.43806,16.70886 -93.33809,18.41644 -0.87505,0.18914 -1.591,0.62154 -1.591,0.96089 0,1.49349 77.24135,51.84202 78.75732,51.3367 0.39883,-0.13294 2.88451,-6.10689 5.52373,-13.27544 z m 203.87714,-7.43374 c 6.91205,-18.88958 13.77641,-38.95842 13.77641,-40.27713 0,-0.80781 -1.61602,0.87644 -4.12605,4.30025 -7.89724,10.77225 -24.15817,34.52477 -24.15039,35.27675 0.0125,1.20472 9.27444,11.09794 10.12454,10.81457 0.42246,-0.14082 2.39143,-4.69231 4.37549,-10.11444 z m -19.60397,-24.16154 c 22.09674,-31.58371 46.3428,-67.35313 45.93278,-67.76314 -0.49484,-0.49485 -100.6268,18.29613 -103.34473,19.3939 -1.17684,0.47532 -0.52026,1.50163 5.29764,8.28083 16.81869,19.59771 43.98121,49.10402 45.20351,49.10402 0.33179,0 3.44165,-4.05702 6.9108,-9.01561 z"
       id="path10"
       transform="scale(0.26458333)" />
    <path
       style="opacity:0;fill:#3974b8;fill-opacity:1;stroke-width:0.707107"
       d="m 347.14586,503.52249 c -1.3315,-0.57988 -11.20835,-11.0493 -25.65666,-27.19593 -13.81315,-15.43681 -23.99169,-26.2467 -24.70516,-26.23758 -0.66738,0.009 -32.07786,6.02026 -69.80109,13.35941 -60.61296,11.7924 -68.86778,13.24992 -70.99669,12.53563 -3.03498,-1.01828 -5.138,-3.80556 -5.20661,-6.90067 -0.0325,-1.4678 8.89103,-27.24244 23.08246,-66.67088 12.72452,-35.3529 23.00139,-64.62712 22.83748,-65.05383 -0.16391,-0.42669 -21.16404,-24.07365 -46.66695,-52.5488 -36.84936,-41.14394 -46.46182,-52.26807 -46.82135,-54.18454 -0.5281,-2.81501 0.9699,-6.25338 3.42535,-7.86226 0.88102,-0.57727 33.09195,-7.13076 71.57984,-14.56331 38.4879,-7.43254 70.09278,-13.62759 70.23307,-13.76677 0.14029,-0.13917 5.61411,-14.9875 12.16405,-32.99628 10.14742,-27.89993 12.22937,-33.03088 14.075,-34.68779 2.34811,-2.10802 5.12264,-2.49001 8.13077,-1.11941 1.38239,0.62986 43.68042,47.04196 47.43772,52.0517 0.62635,0.83514 11.85759,-1.16218 70.35713,-12.512 38.28648,-7.42817 70.18444,-13.50329 70.88434,-13.50027 3.57176,0.0154 7.56628,4.14276 7.56628,7.81786 0,0.83525 -10.2191,29.56843 -22.70912,63.85151 -12.49002,34.28307 -23.13738,63.5313 -23.66079,64.99606 l -0.95165,2.66319 41.16167,45.78728 c 22.63892,25.18301 43.78681,48.72176 46.99531,52.30833 5.51055,6.15991 5.83363,6.70062 5.83363,9.76345 0,2.62771 -0.38498,3.62738 -2.03072,5.27311 -1.11689,1.1169 -2.78743,2.21849 -3.71231,2.448 -0.92487,0.22951 -32.35328,6.27306 -69.8409,13.43011 -37.48763,7.15705 -68.38955,13.26998 -68.67094,13.58428 -0.2814,0.31431 -5.84711,15.36768 -12.36826,33.45194 -6.52114,18.08425 -12.37109,33.48123 -12.99989,34.21549 -1.07198,1.25179 -5.01932,3.29493 -6.24708,3.23349 -0.30418,-0.0152 -1.52724,-0.45195 -2.71793,-0.97052 z m -13.81499,-48.59311 c -1.07877,-6.17603 -1.94934,-9.37514 -2.62144,-9.63305 -0.97832,-0.37542 -11.31848,1.58077 -12.00977,2.27205 -0.53408,0.53408 2.88131,4.72882 9.59108,11.77965 3.36641,3.53751 6.24102,6.07104 6.38801,5.63004 0.147,-0.44098 -0.45955,-4.9629 -1.34788,-10.04869 z m 24.31796,-3.68208 c 4.72139,-12.93123 4.58205,-11.79177 1.43229,-11.71255 -1.48462,0.0373 -4.29029,0.43569 -6.23484,0.88525 -3.12671,0.72287 -3.56217,1.05002 -3.76591,2.82928 -0.21841,1.90742 2.45962,17.06754 3.25421,18.42179 0.67552,1.15131 2.12883,-1.69933 5.31425,-10.42377 z m -149.40227,-0.13722 c 43.26784,-8.33452 109.47194,-21.54168 111.21491,-22.18644 1.52269,-0.56328 4.67843,3.22908 -29.17879,-35.06516 -51.73863,-58.51905 -66.2069,-74.59977 -67.11947,-74.59977 -0.78658,0 -11.96216,30.0659 -36.27105,97.58074 -14.12009,39.21674 -14.73892,41.01219 -14.13559,41.01219 0.27049,0 16.24099,-3.0337 35.48999,-6.74156 z m 152.46205,-29.7012 c 10.41707,-1.80383 137.6828,-26.50631 139.34805,-27.04768 1.40879,-0.45799 0.77958,-1.3554 -7.07106,-10.08512 -4.73961,-5.27032 -23.76456,-26.43833 -42.27768,-47.04003 -37.84802,-42.11787 -48.67127,-53.66196 -49.51764,-52.8156 -0.32041,0.32041 -2.53163,5.98316 -4.91383,12.58388 -8.11208,22.47742 -44.49083,124.80994 -44.49083,125.15163 0,0.5824 2.41109,0.38052 8.92299,-0.74708 z M 320.351,388.20328 c -1.37858,-6.59095 -2.5065,-12.08251 -2.5065,-12.20348 0,-0.22774 -22.60121,-15.11525 -36.64877,-24.14067 -8.06301,-5.18041 -10.35553,-5.94491 -7.08967,-2.36423 0.97176,1.06544 6.50934,7.34654 12.30574,13.95798 5.79639,6.61145 16.27414,18.37682 23.28389,26.14526 11.02426,12.21745 12.77314,13.88575 12.95341,12.35656 0.11462,-0.97234 -0.91953,-7.16047 -2.2981,-13.75142 z m 26.17821,-2.58635 c 11.16211,-31.15291 19.44514,-55.33035 19.25288,-56.19749 -0.23822,-1.07441 -7.25722,8.64144 -20.91019,28.94433 l -9.48971,14.11184 0.48072,3.97392 c 0.57034,4.71487 2.97067,17.66056 4.00891,21.62129 0.93681,3.57377 0.86965,3.6994 6.65739,-12.45389 z m -18.84203,-32.96 c 27.78692,-39.64353 50.53042,-72.96288 50.09858,-73.39472 -0.29555,-0.29554 -29.58109,5.28772 -89.63975,17.08972 -49.33451,9.69462 -45.15524,8.66375 -42.72834,10.53953 8.97082,6.93369 75.80782,51.16415 77.37657,51.20521 0.58337,0.0153 2.78519,-2.43262 4.89294,-5.43974 z M 206.49342,311.96232 c 1.09897,-3.23679 1.78987,-6.4278 1.53533,-7.09112 -0.43732,-1.13965 -40.36786,-28.0389 -41.62229,-28.0389 -1.33272,0 -0.1406,1.5634 9.48855,12.44362 20.52479,23.1915 26.94326,29.94666 27.78799,29.2456 0.44676,-0.37078 1.71144,-3.32242 2.81042,-6.5592 z m 72.4602,-31.22427 c 84.93729,-16.67047 100.03752,-19.82225 100.24979,-20.92451 0.31197,-1.61991 -5.4119,-8.36212 -40.47975,-47.68151 -39.61272,-44.41526 -55.01857,-61.24776 -55.54695,-60.69083 -0.60182,0.63435 -10.89603,28.58445 -27.69171,75.18652 -16.92635,46.96463 -21.78621,60.78403 -21.78621,61.95074 0,0.82108 0.48529,0.99234 1.94454,0.68624 1.0695,-0.22433 20.55913,-4.06133 43.31029,-8.52665 z m -58.55452,-7.48903 c 8.6367,-23.45859 20.37076,-56.89075 20.37076,-58.03947 0,-0.99891 -1.08655,-0.93175 -9.72272,0.60088 -7.50116,1.33121 -85.43806,16.70886 -93.33809,18.41644 -0.87505,0.18914 -1.591,0.62154 -1.591,0.96089 0,1.49349 77.24135,51.84202 78.75732,51.3367 0.39883,-0.13294 2.88451,-6.10689 5.52373,-13.27544 z m 203.87714,-7.43374 c 6.91205,-18.88958 13.77641,-38.95842 13.77641,-40.27713 0,-0.80781 -1.61602,0.87644 -4.12605,4.30025 -7.89724,10.77225 -24.15817,34.52477 -24.15039,35.27675 0.0125,1.20472 9.27444,11.09794 10.12454,10.81457 0.42246,-0.14082 2.39143,-4.69231 4.37549,-10.11444 z m -19.60397,-24.16154 c 22.09674,-31.58371 46.3428,-67.35313 45.93278,-67.76314 -0.49484,-0.49485 -100.6268,18.29613 -103.34473,19.3939 -1.17684,0.47532 -0.52026,1.50163 5.29764,8.28083 16.81869,19.59771 43.98121,49.10402 45.20351,49.10402 0.33179,0 3.44165,-4.05702 6.9108,-9.01561 z"
       id="path11"
       transform="scale(0.26458333)" />
    <path
       d="m 73.96241,33.026925 c -0.463982,-0.0099 -0.895865,0.159904 -1.284159,0.508496 -0.488323,0.438391 -1.039482,1.796394 -3.72432,9.178251 -1.733005,4.764823 -3.18129,8.693394 -3.218409,8.730216 -0.03712,0.03683 -8.399071,1.675629 -18.582328,3.642155 -10.183254,1.966529 -18.705792,3.700776 -18.938895,3.853512 -0.649672,0.425683 -1.046132,1.335172 -0.906405,2.079976 0.09513,0.507066 2.638665,3.450592 12.388391,14.336593 6.747645,7.53405 12.303682,13.790649 12.34705,13.903544 0.04337,0.1129 -2.675829,7.858081 -6.042525,17.211872 -3.754816,10.43211 -6.11572,17.25191 -6.107121,17.64026 0.01815,0.81892 0.574689,1.55631 1.377694,1.82573 0.563274,0.18899 2.747204,-0.19652 18.784383,-3.31659 9.980938,-1.94182 18.291546,-3.53229 18.468123,-3.53467 0.188772,-0.002 2.881823,2.85737 6.536552,6.9417 3.822782,4.27213 6.43644,7.04251 6.788733,7.19594 0.315037,0.1372 0.638338,0.25229 0.718819,0.25631 0.324845,0.0163 1.369501,-0.52404 1.653129,-0.85524 0.16637,-0.19427 1.714199,-4.26789 3.439584,-9.05268 1.725387,-4.78479 3.197694,-8.76798 3.272154,-8.85114 0.0744,-0.0832 8.25083,-1.70046 18.16943,-3.59409 9.9186,-1.89364 18.23375,-3.49255 18.47846,-3.55327 0.24471,-0.0607 0.68686,-0.35251 0.98237,-0.64803 0.43543,-0.43543 0.53743,-0.6995 0.53743,-1.39474 0,-0.81038 -0.0856,-0.9535 -1.54357,-2.58331 -0.84892,-0.94895 -6.4445,-7.176976 -12.43438,-13.839981 l -10.8903,-12.114506 0.25167,-0.704866 c 0.13848,-0.387551 2.95543,-8.126155 6.26008,-17.196883 3.30465,-9.070732 6.00842,-16.673066 6.00842,-16.89406 0,-0.97237 -1.05692,-2.064533 -2.00195,-2.068607 -0.18518,-7.99e-4 -8.62496,1.607022 -18.75492,3.572391 C 90.517594,46.704182 87.546435,47.232565 87.380713,47.011601 86.386594,45.686107 75.195298,33.405965 74.829541,33.239315 74.531078,33.103326 74.2408,33.032867 73.96241,33.026925 Z m 0.961182,7.041947 c 0.139801,-0.147354 4.216429,4.306397 14.697294,16.057935 9.278369,10.403255 10.792484,12.187166 10.709944,12.615767 -0.0562,0.29164 -4.051491,1.125368 -26.524482,5.536096 -6.019578,1.181449 -11.176277,2.196839 -11.459249,2.256193 -0.386093,0.08099 -0.514181,0.03534 -0.514181,-0.181901 0,-0.308692 1.28556,-3.965189 5.76399,-16.391247 4.443856,-12.330131 7.167453,-19.725004 7.326684,-19.892843 z m 44.299108,5.939689 c 0.10848,0.108482 -6.30684,9.572615 -12.15327,17.929138 -0.91788,1.311961 -1.74052,2.385384 -1.82831,2.385384 -0.3234,0 -7.510047,-7.807261 -11.959992,-12.992488 -1.539319,-1.793663 -1.713354,-2.064802 -1.401982,-2.190564 0.719119,-0.290452 27.212624,-5.262399 27.343554,-5.13147 z m -55.730451,10.75955 c 0.171031,0.01421 0.211356,0.07349 0.211356,0.172599 0,0.303933 -3.104725,9.149417 -5.389852,15.356169 -0.698293,1.896679 -1.355885,3.47779 -1.461409,3.512964 -0.401101,0.133699 -20.838005,-13.187998 -20.838005,-13.58315 0,-0.08979 0.189639,-0.204205 0.421163,-0.254248 2.090216,-0.451798 22.710968,-4.520355 24.69565,-4.872571 1.428117,-0.253443 2.076044,-0.355442 2.361097,-0.331763 z m 52.372511,2.852539 c 0.0243,-0.0012 0.0367,0.01649 0.0367,0.05323 0,0.348909 -1.81644,5.658329 -3.64525,10.656197 -0.52495,1.434605 -1.04578,2.639064 -1.15755,2.676322 -0.22493,0.07498 -2.6756,-2.542575 -2.67891,-2.861324 -0.002,-0.198961 4.30031,-6.483639 6.38979,-9.333797 0.54997,-0.750184 0.93819,-1.184795 1.05523,-1.190625 z M 44.02832,73.245142 c 0.331902,0 10.897057,7.117136 11.012765,7.418668 0.06735,0.175504 -0.115408,1.019971 -0.406177,1.876371 -0.290772,0.856399 -0.625419,1.637193 -0.743624,1.735295 -0.223501,0.185489 -1.922005,-1.601945 -7.352523,-7.738029 -2.547712,-2.878725 -2.863056,-3.292305 -2.510441,-3.292305 z m 55.927336,0.642854 c 0.114254,0.114258 -5.903049,8.929953 -13.255005,19.41897 -0.557675,0.795634 -1.140145,1.443237 -1.294495,1.439189 -0.415065,-0.01086 -18.099122,-11.713472 -20.472652,-13.54801 -0.642117,-0.496301 -1.747836,-0.223426 11.305253,-2.788461 15.890521,-3.122612 23.638701,-4.599883 23.716899,-4.521688 z m 6.192384,1.364775 c 0.22394,-0.223933 3.08757,2.830655 13.10153,13.974341 4.89826,5.450866 9.93237,11.051308 11.1864,12.445748 2.07714,2.30974 2.24343,2.5474 1.87068,2.66857 -0.44059,0.14324 -34.112881,6.67889 -36.869065,7.15616 -1.72294,0.29834 -2.361096,0.35201 -2.361096,0.19792 0,-0.0904 9.625571,-27.166076 11.771891,-33.113226 0.63029,-1.746441 1.21489,-3.244738 1.29966,-3.329513 z m -47.102548,9.217525 c 0.24145,0 4.069426,4.255165 17.758605,19.738334 8.958057,10.13201 8.122821,9.12843 7.719943,9.27747 -0.461161,0.17059 -17.977645,3.66475 -29.425594,5.86992 -5.092965,0.98104 -9.318558,1.78387 -9.390125,1.78387 -0.159631,0 0.0044,-0.47492 3.74034,-10.85101 6.431727,-17.863306 9.388715,-25.818584 9.596831,-25.818584 z m 37.73413,2.688725 c 0.05087,0.229431 -2.140437,6.626319 -5.093746,14.868859 -1.531339,4.27389 -1.513785,4.24045 -1.761649,3.29489 -0.274701,-1.04794 -0.909498,-4.4731 -1.060401,-5.720581 l -0.127124,-1.051099 2.510442,-3.734139 c 3.612348,-5.371806 5.469449,-7.942201 5.532478,-7.65793 z m -24.576794,4.72736 c 0.201921,-0.0061 0.930096,0.395922 2.196765,1.209745 3.71675,2.387976 9.696566,6.326951 9.696566,6.387207 0,0.03201 0.298776,1.484887 0.663525,3.228747 0.364747,1.74385 0.638042,3.38127 0.607715,3.63853 -0.0477,0.4046 -0.510345,-0.037 -3.427181,-3.26956 -1.854663,-2.0554 -4.626719,-5.168131 -6.160347,-6.917411 -1.533631,-1.749276 -2.999021,-3.411417 -3.256132,-3.693314 -0.351038,-0.384877 -0.459067,-0.579801 -0.320911,-0.583944 z"
       style="opacity:0;fill:#3974b8;stroke-width:0.707107"
       id="path13" />
  </g>
</svg>
